<svg width="295" height="374" viewBox="0 0 295 374" fill="none" xmlns="http://www.w3.org/2000/svg">
<rect x="-89.1838" y="41.3852" width="363.765" height="332.615" fill="white"/>
<path d="M98.3797 114.265C74.2416 58.9658 128.718 55.5453 137.152 78.6519C153.654 107.871 146.639 120.55 135.28 124.437C138.072 135.573 145.458 160.741 138.164 169.707C129.048 180.914 122.989 186.261 116.992 171.546C112.195 159.775 108.274 135.366 106.912 124.633C103.352 125.671 96.6598 125.051 98.3797 114.265Z" fill="#FFFFFE"/>
<path d="M121.111 125.79C125.505 126.257 130.685 126.008 135.28 124.437M137.152 78.6519C128.718 55.5453 74.2416 58.9658 98.3797 114.265M137.152 78.6519C153.654 107.871 146.639 120.55 135.28 124.437M137.152 78.6519C137.152 78.6519 106.056 96.6706 122.337 86.0381C138.619 75.4055 105.246 92.2476 105.246 92.2476L108.644 110.816C104.526 108.42 100.102 110.53 98.3797 114.265M98.3797 114.265C96.6598 125.051 103.352 125.671 106.912 124.633C108.274 135.366 112.195 159.775 116.992 171.546C122.989 186.261 129.048 180.914 138.164 169.707C145.458 160.741 138.072 135.573 135.28 124.437" stroke="#232540" stroke-width="4" stroke-linecap="round" stroke-linejoin="round"/>
<path d="M98.1048 114.662C73.3827 63.0936 126.075 51.2479 137.723 78.6524L105.531 91.9534L109.213 111.997C102.383 108.171 98.3399 113.187 98.1048 114.662Z" fill="#232540"/>
<rect x="-4.5" y="4.5" width="325.27" height="345.84" rx="23.5" transform="matrix(-1 0 0 1 265.581 0)" stroke="white" stroke-width="9"/>
<path d="M64.3384 370.168L78.5665 307.324H148.284L130.357 370.168H64.3384Z" fill="#232540"/>
<path d="M190.635 370.168L178.353 302.725H124.083V334.448L136.184 358.672L148.076 370.168H190.635Z" fill="#232540"/>
<path d="M134.671 349.475L138.831 327.25" stroke="#344966" stroke-width="4" stroke-linecap="round" stroke-linejoin="round"/>
<path d="M260.196 163.986C264.989 157.641 275.547 144.393 278.135 136.649C278.135 136.649 286.257 118.764 284.37 116.378C282.518 114.038 277.792 125.387 274.256 130.277C278.691 124.103 282.982 107.816 281.041 106.964C277.739 105.515 270.346 122.89 266.868 128.929C270.384 122.672 278.815 104.651 275.678 100.424C274.272 98.5308 264.743 116.321 261.509 124.578C263.434 119.478 266.348 106.722 266.356 104.084C266.381 95.4603 254.913 118.346 251.927 127.845L241.935 160.073L260.196 163.986Z" fill="#FFFFFE" stroke="#232540" stroke-width="4" stroke-linecap="round" stroke-linejoin="round"/>
<path d="M242.787 135.61C242.288 141.139 238.817 151.825 236.446 156.489L246.67 151.755L256.893 147.022C260.217 143.508 253.937 137.59 251.301 134.693C249.609 122.514 249.747 116.685 246.887 116.355C242.53 115.852 243.506 127.634 242.787 135.61Z" fill="#FFFFFE"/>
<path d="M236.447 156.489C238.819 151.824 242.291 141.138 242.79 135.608C243.509 127.631 242.533 115.848 246.89 116.351C249.75 116.681 249.613 122.51 251.304 134.691C254.581 134.696 257.183 142.8 253.859 146.315" stroke="#232540" stroke-width="4" stroke-linecap="round" stroke-linejoin="round"/>
<path d="M207.138 201.024C185.572 138.646 148.806 133.133 133.119 138.174H111.188C67.7813 143.844 13.8663 222.29 19.3492 248.753C23.7355 269.924 59.5112 277.009 75.046 277.954L71.4366 313.494L196.629 320.11L185.663 232.213C188.253 239.617 197.909 253.29 215.819 248.753C233.73 244.216 256.974 191.138 265.503 163.572L239.578 138.174L207.138 201.024Z" fill="#344966"/>
<path d="M103.061 132.348C103.061 132.348 107.095 149.539 109.56 152.732L139.489 149.89L141.265 130.521L103.061 132.348Z" fill="#344966"/>
<path d="M67.3596 231.081C67.3595 220.174 81.594 206.318 81.594 206.318L77.6084 240.809C71.6399 238.073 67.3596 234.384 67.3596 231.081Z" fill="#FFFFFE"/>
<path d="M110.347 249.359C110.347 249.359 91.3523 247.11 77.6084 240.809M77.6084 240.809C71.6399 238.073 67.3596 234.384 67.3596 231.081C67.3595 220.174 81.594 206.318 81.594 206.318L77.6084 240.809Z" stroke="#232540" stroke-width="4" stroke-linecap="round" stroke-linejoin="round"/>
<path d="M184.082 226.659C184.082 226.659 173.264 183.618 161.022 175.069" stroke="#232540" stroke-width="4" stroke-linecap="round" stroke-linejoin="round"/>
<path d="M131.143 99.8178C151.289 95.4882 154.733 95.6452 132.551 106.582L131.143 99.8178Z" fill="#FFFFFE"/>
<path d="M133.654 98.2854C149.679 97.8847 153.454 96.973 136.252 105.651" stroke="#232540" stroke-width="4" stroke-linecap="round" stroke-linejoin="round"/>
<path d="M136.27 105.873L138.35 111.771C136.821 113.76 132.759 116.514 128.747 111.625" stroke="#232540" stroke-width="4" stroke-linecap="round" stroke-linejoin="round"/>
<ellipse rx="1.52912" ry="3.66779" transform="matrix(0.909884 -0.418811 0.393097 0.917802 137.47 92.8841)" fill="#232540"/>
<ellipse rx="1.52912" ry="3.66779" transform="matrix(0.909884 -0.418811 0.393097 0.917802 124.603 98.0687)" fill="#232540"/>
<path d="M94.8293 256.42C72.2723 267.059 111.273 268.915 120.951 269.808C129.162 270.566 176.505 260.816 176.13 258.673C175.516 255.162 157.464 259.523 154.518 257.963C161.202 256.674 181.342 251.943 181.587 249.043C181.832 246.144 160.402 251.755 154.989 251.315C165.24 247.807 185.071 241.153 182.22 237.785C180.812 236.123 159.338 243.727 148.458 245.576C158.073 240.82 179.74 236.803 176.82 233.909C174.854 231.961 149.917 236.776 139 240.536C142.933 237.19 144.989 232.129 146.046 228.224C146.542 226.392 144.403 225.309 143.036 226.617C135.011 234.296 116.083 250.619 94.8293 256.42Z" fill="#FFFFFE" stroke="#232540" stroke-width="4" stroke-linecap="round" stroke-linejoin="round"/>
<path d="M131.699 291.515L88.9958 282.775V239.335H124.297L131.699 291.515Z" fill="#344966"/>
<path d="M83.0173 278.544C83.0173 278.544 99.5292 281.492 120.881 278.544" stroke="#232540" stroke-width="4" stroke-linecap="round" stroke-linejoin="round"/>
<path d="M-79.1101 189.299H96.6366L118.523 302.007H-55.9168L-79.1101 189.299Z" fill="white"/>
<path d="M-91.9124 189.299H84.5459L106.521 302.007H-68.6251L-91.9124 189.299Z" fill="#BFCC94"/>
<path d="M3.08081 301.959H35.6003V360.205H10.1617L3.08081 301.959Z" fill="#BFCC94"/>
<rect x="51.4819" y="347.943" width="96.8022" height="8.43033" fill="#BFCC94"/>
<rect x="162.653" y="341.045" width="29.4944" height="15.3279" fill="#BFCC94"/>
<rect x="162.653" y="341.045" width="21.9318" height="15.3279" fill="#BFCC94"/>
<rect x="-243.21" y="369.21" width="9.57992" height="465.356" transform="rotate(-90 -243.21 369.21)" fill="#BFCC94" stroke="#BFCC94" stroke-width="9.57992"/>
</svg>
